<mxfile host="app.diagrams.net" modified="2021-11-15T11:06:29.213Z" agent="5.0 (Windows)" etag="6-l2lvr05gxQYnyDaozt" version="15.7.3" type="github">
  <diagram id="R2QtfvcRlWxQc1wNqg7m" name="Page-1">
    <mxGraphModel dx="235" dy="523" grid="1" gridSize="10" guides="1" tooltips="1" connect="1" arrows="1" fold="1" page="1" pageScale="1" pageWidth="827" pageHeight="1169" math="0" shadow="0">
      <root>
        <mxCell id="0" />
        <mxCell id="1" parent="0" />
        <mxCell id="RjcRhl66t8cvVIZuDs8n-11" value="Mike" style="swimlane;fontStyle=1;align=center;verticalAlign=top;childLayout=stackLayout;horizontal=1;startSize=26;horizontalStack=0;resizeParent=1;resizeParentMax=0;resizeLast=0;collapsible=1;marginBottom=0;fontFamily=Lucida Console;" vertex="1" parent="1">
          <mxGeometry x="510" y="240" width="240" height="180" as="geometry" />
        </mxCell>
        <mxCell id="RjcRhl66t8cvVIZuDs8n-12" value="Name:&#39;Mike&#39;&#xa;Age:15&#xa;Level:55&#xa;Items: new List&lt;string&gt;()&#xa;" style="text;strokeColor=none;fillColor=none;align=left;verticalAlign=top;spacingLeft=4;spacingRight=4;overflow=hidden;rotatable=0;points=[[0,0.5],[1,0.5]];portConstraint=eastwest;fontFamily=Lucida Console;" vertex="1" parent="RjcRhl66t8cvVIZuDs8n-11">
          <mxGeometry y="26" width="240" height="64" as="geometry" />
        </mxCell>
        <mxCell id="RjcRhl66t8cvVIZuDs8n-13" value="" style="line;strokeWidth=1;fillColor=none;align=left;verticalAlign=middle;spacingTop=-1;spacingLeft=3;spacingRight=3;rotatable=0;labelPosition=right;points=[];portConstraint=eastwest;fontFamily=Lucida Console;" vertex="1" parent="RjcRhl66t8cvVIZuDs8n-11">
          <mxGeometry y="90" width="240" height="10" as="geometry" />
        </mxCell>
        <mxCell id="RjcRhl66t8cvVIZuDs8n-14" value="Player(string name, int age)&#xa;PickUpItem(string item): void&#xa;HasItem(string item): boolean&#xa;Sleepp(): void&#xa;&#xa;" style="text;strokeColor=none;fillColor=none;align=left;verticalAlign=top;spacingLeft=4;spacingRight=4;overflow=hidden;rotatable=0;points=[[0,0.5],[1,0.5]];portConstraint=eastwest;fontFamily=Lucida Console;" vertex="1" parent="RjcRhl66t8cvVIZuDs8n-11">
          <mxGeometry y="100" width="240" height="80" as="geometry" />
        </mxCell>
        <mxCell id="RjcRhl66t8cvVIZuDs8n-15" value="Player" style="swimlane;fontStyle=1;align=center;verticalAlign=top;childLayout=stackLayout;horizontal=1;startSize=26;horizontalStack=0;resizeParent=1;resizeParentMax=0;resizeLast=0;collapsible=1;marginBottom=0;fontFamily=Lucida Console;" vertex="1" parent="1">
          <mxGeometry x="230" y="240" width="230" height="180" as="geometry" />
        </mxCell>
        <mxCell id="RjcRhl66t8cvVIZuDs8n-16" value="Name:string&#xa;Age:int&#xa;Level:int&#xa;Items: List&lt;string&gt;&#xa;" style="text;strokeColor=none;fillColor=none;align=left;verticalAlign=top;spacingLeft=4;spacingRight=4;overflow=hidden;rotatable=0;points=[[0,0.5],[1,0.5]];portConstraint=eastwest;fontFamily=Lucida Console;" vertex="1" parent="RjcRhl66t8cvVIZuDs8n-15">
          <mxGeometry y="26" width="230" height="64" as="geometry" />
        </mxCell>
        <mxCell id="RjcRhl66t8cvVIZuDs8n-17" value="" style="line;strokeWidth=1;fillColor=none;align=left;verticalAlign=middle;spacingTop=-1;spacingLeft=3;spacingRight=3;rotatable=0;labelPosition=right;points=[];portConstraint=eastwest;fontFamily=Lucida Console;" vertex="1" parent="RjcRhl66t8cvVIZuDs8n-15">
          <mxGeometry y="90" width="230" height="10" as="geometry" />
        </mxCell>
        <mxCell id="RjcRhl66t8cvVIZuDs8n-18" value="Player(string name, int age)&#xa;PickUpItem(string item): void&#xa;HasItem(string item): boolean&#xa;Sleepp(): void&#xa;&#xa;" style="text;strokeColor=none;fillColor=none;align=left;verticalAlign=top;spacingLeft=4;spacingRight=4;overflow=hidden;rotatable=0;points=[[0,0.5],[1,0.5]];portConstraint=eastwest;fontFamily=Lucida Console;" vertex="1" parent="RjcRhl66t8cvVIZuDs8n-15">
          <mxGeometry y="100" width="230" height="80" as="geometry" />
        </mxCell>
        <mxCell id="RjcRhl66t8cvVIZuDs8n-20" value="Mike&#39;s Game UML" style="text;html=1;strokeColor=none;fillColor=none;align=center;verticalAlign=middle;whiteSpace=wrap;rounded=0;fontStyle=1;fontSize=25;fontFamily=Lucida Console;" vertex="1" parent="1">
          <mxGeometry x="360" y="60" width="240" height="90" as="geometry" />
        </mxCell>
        <mxCell id="RjcRhl66t8cvVIZuDs8n-21" value="Class Diagrams" style="text;html=1;strokeColor=none;fillColor=none;align=center;verticalAlign=middle;whiteSpace=wrap;rounded=0;fontFamily=Lucida Console;fontSize=25;" vertex="1" parent="1">
          <mxGeometry x="250" y="200" width="230" height="20" as="geometry" />
        </mxCell>
        <mxCell id="RjcRhl66t8cvVIZuDs8n-26" value="Object Diagrams" style="text;html=1;strokeColor=none;fillColor=none;align=center;verticalAlign=middle;whiteSpace=wrap;rounded=0;fontFamily=Lucida Console;fontSize=25;" vertex="1" parent="1">
          <mxGeometry x="410" y="200" width="440" height="30" as="geometry" />
        </mxCell>
      </root>
    </mxGraphModel>
  </diagram>
</mxfile>
